# xmcd
#
# Track frame offsets: 
#        150
#        2798
#        20725
#        34756
#        50871
#        61839
#        76414
#        92241
#        110668
#        129895
#        148155
#        166479
#        182785
#        209048
#        223358
#
# Disc length: 2995 seconds
#
# Revision: 0
# Processed by: cddbd v1.5.2PL0 Copyright (c) Steve Scherf et al.
# Submitted via: ExactAudioCopy v1.0b3
#
DISCID=e60bb10f
DTITLE=Pazur - Kurza Twarz
DYEAR=2016
DGENRE=Rock
TTITLE0=Tytułem Wstępu
TTITLE1=Kurza Twarz Czyli Próżne Żale
TTITLE2=Nie Patrz Na Mnie
TTITLE3=Listy Do Luizy
TTITLE4=O Czarnych Butach
TTITLE5=Taniec Porąbaniec
TTITLE6=Bicie Serc Budzi Mnie
TTITLE7=Rajstopy
TTITLE8=Laleczka
TTITLE9=Dieta Cud
TTITLE10=Oliviera
TTITLE11=Jak Psu Kość
TTITLE12=Obcy Raj Obce Niebo
TTITLE13=Pije Za Życie
TTITLE14=Końcawka
EXTD=
EXTT0=
EXTT1=
EXTT2=
EXTT3=
EXTT4=
EXTT5=
EXTT6=
EXTT7=
EXTT8=
EXTT9=
EXTT10=
EXTT11=
EXTT12=
EXTT13=
EXTT14=
PLAYORDER=
